IKResults
version=1
nRows=11
nColumns=40
inDegrees=yes

Units are S.I. units (second, meters, Newtons, ...)
Angles are in degrees.

endheader
time	pelvis_tilt	pelvis_list	pelvis_rotation	pelvis_tx	pelvis_ty	pelvis_tz	hip_flexion_r	hip_adduction_r	hip_rotation_r	knee_angle_r	knee_angle_r_beta	ankle_angle_r	subtalar_angle_r	mtp_angle_r	hip_flexion_l	hip_adduction_l	hip_rotation_l	knee_angle_l	knee_angle_l_beta	ankle_angle_l	subtalar_angle_l	mtp_angle_l	lumbar_extension	lumbar_bending	lumbar_rotation	arm_flex_r	arm_add_r	arm_rot_r	elbow_flex_r	pro_sup_r	wrist_flex_r	wrist_dev_r	arm_flex_l	arm_add_l	arm_rot_l	elbow_flex_l	pro_sup_l	wrist_flex_l	wrist_dev_l
      5.00000000	     -0.71420551	     -1.72723387	      3.99109537	     -0.03516662	      0.90198114	     -0.02376323	     24.07308038	     -1.74756069	    -11.12002623	      9.53783527	      0.16646663	      6.44682967	      0.00000000	      0.00000000	    -14.04654175	     -2.71838175	     -1.55380223	     10.46895341	      0.18271771	     16.94745815	      0.00000000	      0.00000000	     -1.32615833	     -0.49282578	     -7.68926196	     -2.58007533	     -1.71271639	     -0.16827588	     17.14035444	     38.96249016	      0.00000002	      0.00000001	     14.26205149	    -10.44676517	      3.49985118	     24.45944183	     41.09568981	      0.00000000	      0.00000000
      5.01000000	     -0.70752256	     -1.73688591	      4.03119195	     -0.03356037	      0.90140795	     -0.02228021	     24.12383314	     -1.76607033	    -11.80352777	     10.99256251	      0.19185641	      6.65093624	      0.00000000	      0.00000000	    -14.44826558	     -2.97983749	     -1.67415182	     11.20744862	      0.19560688	     16.70597653	      0.00000000	      0.00000000	     -1.14260674	     -0.41668970	     -7.83377622	     -2.74940059	     -1.69668363	     -0.06773958	     17.06016986	     38.93301418	      0.00000002	      0.00000001	     13.84403546	    -10.53458049	      3.20668595	     24.64223448	     41.05830598	      0.00000000	      0.00000000
      5.02000000	     -0.67934701	     -1.77897604	      4.08339905	     -0.03163867	      0.90093843	     -0.02069950	     23.65084927	     -1.60518877	    -11.75566600	     11.60936342	      0.20262162	      6.43167363	      0.00000000	      0.00000000	    -14.99317624	     -3.27640472	     -1.51108961	     11.61337498	      0.20269163	     16.47324245	      0.00000000	      0.00000000	     -0.95979920	     -0.28143485	     -7.86290029	     -3.02573514	     -1.69076734	     -0.06870671	     16.96801280	     38.92017304	      0.00000002	      0.00000001	     13.51350210	    -10.52656837	      3.15255542	     24.57635573	     41.04135606	      0.00000000	      0.00000000
      5.03000000	     -0.76736805	     -1.77633065	      4.14860340	     -0.02958800	      0.90055392	     -0.01907425	     23.80148350	     -1.63874189	    -12.06368793	     13.26860898	      0.23158091	      5.43004554	      0.00000000	      0.00000000	    -15.09262970	     -3.56078443	     -1.17643065	     12.76653968	      0.22281815	     15.62247865	      0.00000000	      0.00000000	     -0.54496229	     -0.22514734	     -8.04421892	     -3.16426445	     -1.71526583	     -0.03009463	     16.93378957	     38.91217631	      0.00000002	      0.00000001	     12.96513477	    -10.57186463	      3.00270784	     24.55559597	     41.00712125	      0.00000000	      0.00000000
      5.04000000	     -0.77354665	     -1.86211869	      4.15145037	     -0.02739189	      0.90047013	     -0.01729294	     23.51494914	     -1.44345077	    -12.24922704	     13.97615598	      0.24392994	      4.69279259	      0.00000000	      0.00000000	    -15.38730665	     -3.90868235	     -1.08898929	     13.60937061	      0.23752833	     15.11638711	      0.00000000	      0.00000000	     -0.33972749	      0.02057395	     -8.08733804	     -3.49516979	     -1.69512785	     -0.02132398	     16.82330735	     38.89624743	      0.00000002	      0.00000001	     12.37750887	    -10.59597646	      2.89734509	     24.45039632	     40.97795826	      0.00000000	      0.00000000
      5.05000000	     -0.82765006	     -2.03514562	      4.12027608	     -0.02527567	      0.90080748	     -0.01544903	     23.40072572	     -1.18123553	    -12.30793339	     14.81479886	      0.25856702	      4.25016539	      0.00000000	      0.00000000	    -15.07186653	     -4.38031773	     -1.70691669	     15.56569813	      0.27167268	     14.31083226	      0.00000000	      0.00000000	      0.05258563	      0.19367051	     -8.29688454	     -3.46533916	     -1.72469074	      0.11431381	     16.77275545	     38.88517717	      0.00000002	      0.00000001	     11.77240072	    -10.65747938	      2.51994887	     24.58746689	     40.91555397	      0.00000000	      0.00000000
      5.06000000	     -0.74774241	     -2.27913551	      4.02164483	     -0.02311706	      0.90165245	     -0.01351340	     23.05511107	     -0.76814385	    -11.80538924	     15.54156690	      0.27125151	      4.32181695	      0.00000000	      0.00000000	    -14.97501635	     -4.89488382	     -1.94388269	     17.25027221	      0.30107405	     13.27709495	      0.00000000	      0.00000000	      0.20461500	      0.59391420	     -8.31158687	     -3.56386251	     -1.75979429	      0.21157064	     16.70008866	     38.87693563	      0.00000002	      0.00000001	     11.17632880	    -10.62044987	      2.23529075	     24.49020909	     40.84734674	      0.00000000	      0.00000000
      5.07000000	     -0.64605035	     -2.56030486	      3.85243185	     -0.02100153	      0.90291056	     -0.01147508	     22.69478756	     -0.32539373	    -11.43153204	     16.42208286	      0.28661942	      4.30300640	      0.00000000	      0.00000000	    -14.79641222	     -5.40917617	     -1.87318495	     19.02086306	      0.33197669	     11.98598742	      0.00000000	      0.00000000	      0.28401240	      0.99236260	     -8.21305652	     -3.63970252	     -1.80552567	      0.25246375	     16.65186991	     38.87656874	      0.00000002	      0.00000001	     10.60671434	    -10.55423055	      2.08765444	     24.30006376	     40.79917255	      0.00000000	      0.00000000
      5.08000000	     -0.53958949	     -2.83147323	      3.63597163	     -0.01904239	      0.90428542	     -0.00931218	     22.35963153	      0.09872647	    -11.04325339	     17.45852755	      0.30470879	      4.52038517	      0.00000000	      0.00000000	    -14.34882496	     -5.92403221	     -2.04349235	     21.26794237	      0.37119562	     10.53295182	      0.00000000	      0.00000000	      0.30764243	      1.46222849	     -8.08644022	     -3.58349793	     -1.98958363	      0.26024505	     16.67615080	     38.90845251	      0.00000002	      0.00000001	     10.02171473	    -10.45408815	      1.96095100	     24.06391034	     40.74743624	      0.00000000	      0.00000000
      5.09000000	     -0.37935841	     -2.92543534	      3.28340079	     -0.01676633	      0.90590025	     -0.00693611	     21.89329987	      0.43834448	    -10.31970987	     18.39146288	      0.32099158	      5.00100783	      0.00000000	      0.00000000	    -13.76874662	     -6.27451648	     -2.59104702	     23.81679183	      0.41568143	      8.79909345	      0.00000000	      0.00000000	      0.33513848	      1.65237622	     -7.81602040	     -3.64455371	     -1.93800245	      0.25970048	     16.64731195	     38.93177498	      0.00000002	      0.00000001	      9.36315551	    -10.49064410	      1.81130690	     23.76857733	     40.69173248	      0.00000000	      0.00000000
      5.10000000	     -0.58585664	     -3.18823325	      3.21991685	     -0.01605763	      0.90723239	     -0.00484237	     21.80839492	      0.87418827	     -9.78960600	     19.11978327	      0.33370317	      5.02449500	      0.00000000	      0.00000000	    -12.28071998	     -6.84463001	     -2.35592712	     26.93330138	      0.47007479	      7.00052573	      0.00000000	      0.00000000	      0.55299194	      2.00219781	     -7.83656038	     -3.55253301	     -1.97894636	      0.25303939	     16.67253011	     38.96715955	      0.00000002	      0.00000001	      8.88780078	    -10.38591471	      1.72332576	     23.50848200	     40.63801710	      0.00000000	      0.00000000
